<?xml version="1.0" encoding="utf-8"?>
<!-- Generator: Adobe Illustrator 23.0.2, SVG Export Plug-In . SVG Version: 6.00 Build 0)  -->
<svg version="1.1" id="Layer_1" xmlns="http://www.w3.org/2000/svg" xmlns:xlink="http://www.w3.org/1999/xlink" x="0px" y="0px"
	 viewBox="0 0 260 160" style="enable-background:new 0 0 260 160;" xml:space="preserve">
<style type="text/css">
	.st0{fill:#F15722;}
	.st1{fill:#4852A3;}
	.st2{fill:#FFFFFF;}
</style>
<g>
	<path class="st0" d="M246.8,80c0,41.3-23.6,64.8-67.2,64.8c-22.5,0-39.7-6.3-51-18c-11.3,11.7-28.5,18-51,18h-0.3l-0.2,0l-0.2,0
		l-0.1,0l-0.1,0l-0.8,0c-42.4-0.5-65.5-23.5-65.9-63.6l0-1.2l0-1.1l0,0l0-0.2c0.5-40.5,24-63.6,67.2-63.6h0.3l0.2,0l0.2,0l0.2,0
		l0.8,0c21.9,0.2,38.6,6.5,49.7,18c11.3-11.7,28.5-18,51-18C223.2,15.2,246.8,38.7,246.8,80L246.8,80z M109.3,80l0-0.5
		c0-0.1,0-0.2,0-0.2c0-0.1,0-0.2,0-0.3l0,0.3C108.9,64.4,98,56.8,78,56.6l0,0c-0.2,0-0.4,0-0.6,0l0.1,0c-0.3,0-0.5,0-0.8,0v0l-0.1,0
		c-20.1,0.2-30.9,7.9-31.2,22.9c0,0.2,0,0.3,0,0.5l0,0.5c0,0.1,0,0.2,0,0.2c0,0.1,0,0.2,0,0.3l0-0.3c0.3,14.9,11.2,22.5,31.3,22.7
		l0,0c0.2,0,0.4,0,0.6,0l-0.1,0c0.3,0,0.5,0,0.8,0v0l0.1,0c20.1-0.2,30.9-7.9,31.2-22.9C109.3,80.3,109.3,80.2,109.3,80L109.3,80z
		 M211.3,80c0-15.5-11.1-23.4-31.8-23.4c-20.7,0-31.8,7.9-31.8,23.4c0,15.5,11.1,23.4,31.8,23.4C200.2,103.4,211.3,95.5,211.3,80
		L211.3,80z"/>
	<path class="st1" d="M250,80c0,41.3-23.6,64.8-67.2,64.8c-22.5,0-39.7-6.3-51-18c-11.3,11.7-28.5,18-51,18h-0.3l-0.2,0l-0.2,0
		l-0.1,0l-0.1,0l-0.8,0c-42.4-0.5-65.5-23.5-65.9-63.6l0-1.2l0-1.1l0,0l0-0.2c0.5-40.5,24-63.6,67.2-63.6h0.3l0.2,0l0.2,0l0.2,0
		l0.8,0c21.9,0.2,38.6,6.5,49.7,18c11.3-11.7,28.5-18,51-18C226.4,15.2,250,38.7,250,80L250,80z M112.5,80l0-0.5c0-0.1,0-0.2,0-0.2
		c0-0.1,0-0.2,0-0.3l0,0.3c-0.3-14.9-11.2-22.5-31.3-22.7l0,0c-0.2,0-0.4,0-0.6,0l0.1,0c-0.3,0-0.5,0-0.8,0v0l-0.1,0
		c-20.1,0.2-30.9,7.9-31.2,22.9c0,0.2,0,0.3,0,0.5l0,0.5c0,0.1,0,0.2,0,0.2c0,0.1,0,0.2,0,0.3l0-0.3C49,95.6,59.9,103.2,80,103.4
		l0,0c0.2,0,0.4,0,0.6,0l-0.1,0c0.3,0,0.5,0,0.8,0v0l0.1,0c20.1-0.2,30.9-7.9,31.2-22.9C112.5,80.3,112.5,80.2,112.5,80L112.5,80z
		 M214.6,80c0-15.5-11.1-23.4-31.8-23.4c-20.7,0-31.8,7.9-31.8,23.4c0,15.5,11.1,23.4,31.8,23.4C203.5,103.4,214.6,95.5,214.6,80
		L214.6,80z"/>
	<path class="st2" d="M248.4,80c0,41.3-23.6,64.8-67.2,64.8c-22.5,0-39.7-6.3-51-18c-11.3,11.7-28.5,18-51,18h-0.3l-0.2,0l-0.2,0
		l-0.1,0l-0.1,0l-0.8,0c-42.4-0.5-65.5-23.5-65.9-63.6l0-1.2l0-1.1l0,0l0-0.2c0.5-40.5,24-63.6,67.2-63.6h0.3l0.2,0l0.2,0l0.2,0
		l0.8,0c21.9,0.2,38.6,6.5,49.7,18c11.3-11.7,28.5-18,51-18C224.8,15.2,248.4,38.7,248.4,80L248.4,80z M110.9,80l0-0.5
		c0-0.1,0-0.2,0-0.2c0-0.1,0-0.2,0-0.3l0,0.3c-0.3-14.9-11.2-22.5-31.3-22.7l0,0c-0.2,0-0.4,0-0.6,0l0.1,0c-0.3,0-0.5,0-0.8,0v0
		l-0.1,0c-20.1,0.2-30.9,7.9-31.2,22.9c0,0.2,0,0.3,0,0.5l0,0.5c0,0.1,0,0.2,0,0.2c0,0.1,0,0.2,0,0.3l0-0.3
		c0.3,14.9,11.2,22.5,31.3,22.7l0,0c0.2,0,0.4,0,0.6,0l-0.1,0c0.3,0,0.5,0,0.8,0v0l0.1,0c20.1-0.2,30.9-7.9,31.2-22.9
		C110.9,80.3,110.9,80.2,110.9,80L110.9,80z M212.9,80c0-15.5-11.1-23.4-31.8-23.4c-20.7,0-31.8,7.9-31.8,23.4
		c0,15.5,11.1,23.4,31.8,23.4C201.8,103.4,212.9,95.5,212.9,80L212.9,80z"/>
</g>
</svg>
